# xmcd
#
# Track frame offsets:
#	150
#	22452
#	37202
#	53047
#	70292
#	82880
#	109365
#	123747
#	145527
#	160195
#	183180
#	201087
#	219167
#	232565
#	247542
#	268920
#	293450
#
# Disc length: 4096 seconds
#
# Revision: 1
# Processed by: cddbd v1.5.2PL0 Copyright (c) Steve Scherf et al.
# Submitted via: audiograbber 1.83.01
#
DISCID=ea0ffe11
DTITLE=Andrew Brown - Big Brown's Blues, Disk 2
DYEAR=2006
DGENRE=Blues
TTITLE0=Losing Hand
TTITLE1=This Time You Gonna Pay
TTITLE2=Can't Let You Go
TTITLE3=Lead Me On
TTITLE4=I'm So Tired
TTITLE5=It Took A Long Time
TTITLE6=Blues Do Something To Me
TTITLE7=Right Now
TTITLE8=Spring
TTITLE9=I Can Hear My Baby Talking
TTITLE10=On The Case
TTITLE11=You Were Meant For Me
TTITLE12=Easy Now
TTITLE13=Bby Don't You Worry
TTITLE14=On The Case
TTITLE15=Prove It To Me
TTITLE16=It Took A Long Time
EXTD=
EXTT0=
EXTT1=
EXTT2=
EXTT3=
EXTT4=
EXTT5=
EXTT6=
EXTT7=
EXTT8=
EXTT9=
EXTT10=
EXTT11=
EXTT12=
EXTT13=
EXTT14=
EXTT15=
EXTT16=
PLAYORDER=
